<svg width="144" height="14" viewBox="0 0 144 14" fill="none" xmlns="http://www.w3.org/2000/svg">
<g clip-path="url(#clip0_430_817)">
<path d="M27.9558 12.6437C27.9558 12.5471 27.9558 12.4022 27.9558 12.3057C27.9013 12.3057 24.3586 12.4988 22.6145 12.4988C20.3255 12.4988 17.0554 12.4505 17.0554 12.4505L2.01276 12.3539C2.01276 12.3057 2.01276 12.1125 2.01276 12.0642L17.1099 12.0159C17.1099 12.0159 20.38 12.0642 22.669 12.0642C24.4131 12.0642 27.9013 12.0642 27.9558 12.0642C27.9558 11.9193 27.9013 11.6779 27.9013 11.4847C27.8468 11.4847 24.3586 11.7262 22.669 11.7262C20.38 11.7262 17.1099 11.5813 17.1099 11.5813H13.2402L8.11698 11.4365H2.06726C2.06726 11.3882 2.12177 11.195 2.12177 11.1467C2.33977 11.195 2.50328 11.2433 3.2663 11.2433C4.24734 11.2433 4.68336 11.0501 4.68336 11.0501C4.68336 11.0501 5.39189 11.2433 6.3184 11.2433C6.75443 11.2433 7.73551 10.857 8.33499 11.0019C9.31607 11.2433 9.69754 10.857 9.69754 10.857C9.69754 10.857 9.91555 11.0985 10.3516 11.195C10.6786 11.2433 11.1146 11.0501 11.1146 11.0501C11.1146 11.0501 11.6596 11.3882 13.2402 11.3882C15.1478 11.3882 15.6928 10.4707 15.6928 10.4707H15.7473C15.7473 10.4707 15.6928 10.7121 15.8018 10.9053C16.0198 11.2916 16.6193 11.3399 16.6193 11.3399C16.5648 10.2776 17.0554 9.55324 17.0554 9.55324H17.1099L17.0009 9.84292C16.7828 10.6156 17.1644 11.2916 17.1644 11.2916L17.3278 11.195C17.3278 11.195 17.1644 10.7121 17.3278 10.0361C17.4913 9.36008 17.7638 9.02203 17.7638 9.02203H17.8729C17.8729 9.02203 17.7093 9.55324 17.7093 9.9395C17.7093 10.2776 17.9274 11.0985 18.6359 11.3399C19.1809 11.533 19.6169 11.0985 19.6169 11.0985C19.6169 11.0985 20.816 11.3882 21.797 11.3882C24.1406 11.3882 24.6856 11.0501 24.6856 11.0501C24.6856 11.0501 24.8491 11.2916 26.0482 11.2916C26.7567 11.2916 27.3017 11.2433 27.6287 11.195C27.7377 11.195 27.7923 11.195 27.8468 11.1467C27.8468 10.9536 27.7923 10.8087 27.7377 10.6156C27.0837 7.38024 24.9582 4.57954 22.0151 2.79288L21.8515 3.22747C24.7401 4.91755 26.8657 7.57339 27.4652 10.7121C27.1382 10.8087 26.6477 10.9536 26.0482 10.9536C25.1217 10.9536 24.9037 10.7121 24.9037 10.7121C24.9037 10.7121 24.5766 10.9053 23.9771 10.9053C23.4321 10.9053 23.0506 10.5672 23.0506 10.5672C23.0506 10.5672 22.5055 11.0501 21.5245 11.0501C20.38 11.0501 19.7804 10.4224 19.5624 10.1327C19.3444 9.84292 19.2354 9.6015 19.2354 9.6015H19.1809C19.1809 9.69808 19.2354 9.84292 19.2899 9.98782C19.4534 10.3741 19.5624 10.4707 19.6169 10.5672C19.6714 10.6156 19.7259 10.7604 19.5624 10.8087C19.4534 10.857 19.3989 10.7604 19.3444 10.7121C19.2899 10.6156 19.0719 10.3741 18.9629 9.98782C18.7994 9.55324 18.7994 9.2635 18.7449 9.02203H18.6359C18.5814 9.21519 18.5814 9.55324 18.5814 9.9395C18.6359 10.3741 18.7449 10.6638 18.7994 10.7604C18.7994 10.7604 18.8539 10.8087 18.8539 10.857C18.8539 11.0019 18.7449 11.0501 18.6359 11.0501C18.5269 11.0501 18.4179 10.9536 18.3634 10.857C17.8729 10.1327 18.4724 8.68403 18.6359 8.24945C18.9084 7.62171 18.9629 6.99392 18.9629 6.99392C18.9629 6.99392 19.2899 6.51108 19.4534 6.17302C19.6714 5.73846 19.8349 5.35215 19.9985 5.20729C20.2165 5.01413 20.5979 4.53125 20.9795 3.90351C21.034 3.80693 21.361 3.13089 21.4155 2.98603C21.47 2.88946 21.5245 2.74459 21.579 2.64802C21.7425 2.06856 21.906 1.39252 21.906 1.29595C21.906 1.15109 21.6335 1.05451 21.6335 1.05451C21.6335 1.05451 21.361 0.957932 21.1975 0.957932C21.0885 0.957932 20.9795 1.05451 20.8705 1.1028C20.707 1.15109 20.6525 1.1028 20.6525 1.1028C20.6525 1.1028 20.4344 1.00622 20.3255 1.05451C20.2165 1.05451 20.1075 1.19937 19.9985 1.19937C19.8349 1.24766 19.7804 1.24766 19.7804 1.24766C19.7804 1.24766 19.6169 1.19937 19.5079 1.19937C19.3989 1.24766 19.2899 1.29595 19.0719 1.44081C17.5458 0.957932 15.9653 0.716492 14.3302 0.716492C6.86344 0.716492 0.759212 6.02818 0.650208 12.6437C0.650208 12.6919 0.650208 12.9817 0.650208 12.9817H27.9558C27.9558 12.9817 27.9558 12.6919 27.9558 12.6437ZM10.5696 10.2292C10.5151 10.2292 10.5696 10.181 10.5151 10.181C10.8966 9.11861 11.7686 6.94566 13.1857 5.30386C13.3492 5.35215 13.4582 5.44872 13.6217 5.49701C12.5861 6.51108 11.2236 8.49087 10.5696 10.2292ZM11.3871 10.5672C11.6596 9.6015 12.3682 7.57339 13.8942 5.64188C14.0577 5.73846 14.1667 5.78675 14.3302 5.88334C13.2947 7.0905 12.0412 9.02203 11.4961 10.6156C11.4416 10.6156 11.4416 10.5672 11.3871 10.5672ZM12.4772 10.8087C12.4227 10.8087 12.4772 10.8087 12.4227 10.8087C12.6406 10.0361 13.2402 8.00797 14.6572 6.02818C14.8207 6.12476 14.9298 6.17302 15.0388 6.2696C14.0577 7.57339 12.9677 9.36008 12.4772 10.8087ZM13.5127 10.8087C13.4582 10.8087 13.4582 10.8087 13.4582 10.8087C13.6762 10.0844 14.1667 8.29771 15.3658 6.51108C15.5293 6.60766 15.6928 6.70424 15.7473 6.80082C14.8752 7.95971 13.9487 9.50492 13.5127 10.8087ZM17.1099 7.57339C16.8373 7.57339 16.4558 7.47682 16.3468 7.28366C16.4013 7.62171 16.8373 7.91139 17.2189 7.91139C17.1099 7.91139 17.0554 7.95971 16.9463 7.95971C16.4558 7.95971 16.0198 7.57339 16.0198 7.13882C16.0198 7.0905 16.0198 6.99392 16.0198 6.94566C16.4013 7.23539 17.2189 7.62171 17.7093 7.04224V7.0905C17.6548 7.33197 17.3823 7.57339 17.1099 7.57339ZM18.6359 5.69017C18.6359 5.83503 18.5269 5.88334 18.4179 5.9316C18.3634 5.97992 18.1999 6.02818 18.1999 6.07644H18.1454C18.1454 6.07644 18.0909 6.02818 18.0364 6.02818C18.0364 5.97992 18.0364 5.97992 18.0364 5.97992V5.9316V5.83503C18.0364 5.83503 17.9819 5.73846 18.0364 5.64188C18.0364 5.49701 18.1999 5.40044 18.1999 5.40044H18.2544C18.2544 5.40044 18.1999 5.49701 18.1454 5.59359C18.1454 5.64188 18.0909 5.78675 18.1454 5.88334V5.97992L18.1999 6.02818L18.2544 5.97992C18.3634 5.9316 18.3634 5.88334 18.3634 5.88334C18.3634 5.88334 18.2544 5.78675 18.3089 5.69017C18.3634 5.59359 18.5269 5.59359 18.5269 5.59359C18.5814 5.44872 18.5269 5.35215 18.5269 5.35215L18.6359 5.40044C18.5814 5.35215 18.6359 5.49701 18.6359 5.69017ZM19.3444 1.58568C19.5079 1.53739 19.5624 1.44081 19.7259 1.39252C19.8895 1.34423 19.9985 1.39252 20.1075 1.39252C20.2165 1.39252 20.38 1.24766 20.4889 1.24766C20.5979 1.24766 20.6525 1.29595 20.7615 1.29595C20.816 1.39252 21.143 1.19937 21.1975 1.19937C21.252 1.19937 21.47 1.19937 21.4155 1.39252C21.361 1.53739 21.252 1.97198 21.034 2.55144C20.9795 2.6963 20.8705 2.88946 20.7615 3.08261C20.6525 3.27576 20.5434 3.5172 20.38 3.71035C19.7804 4.57954 19.1809 4.38639 18.0364 4.86927C17.1099 5.25558 16.7283 5.49701 16.6193 5.64188C16.5103 5.5453 16.4558 5.5453 16.3468 5.49701C16.5103 5.35215 16.8918 5.11071 17.6548 4.77269C18.4724 4.38639 19.8349 3.90351 20.1075 3.46892C20.1075 3.42063 20.1075 3.42063 20.1075 3.37234C19.7804 3.56549 19.5079 3.66206 19.3989 3.75864C18.0909 4.3381 17.6003 4.48296 17.0009 4.77269C16.7283 4.91755 16.2923 5.11071 16.0198 5.30386C15.9653 5.25558 15.8563 5.20729 15.8018 5.159C16.0743 4.96584 16.4558 4.77269 16.8373 4.57954C17.4368 4.3381 17.9274 4.09666 19.3444 3.37234C19.4534 3.32405 20.162 2.93775 20.707 2.55144C20.707 2.50315 20.707 2.45486 20.7615 2.40658C20.271 2.64802 18.6904 3.42063 18.3634 3.56549C17.0554 4.14495 17.1099 4.09666 16.5103 4.38639C16.1288 4.57954 15.7473 4.77269 15.4748 4.96584C15.4203 4.91755 15.3113 4.86927 15.2568 4.82098C15.5838 4.62783 15.8563 4.43468 16.2923 4.24152C16.8918 3.9518 16.9463 3.90351 18.3089 3.32405C18.9629 3.03432 20.162 2.31 20.816 1.97198C20.816 1.92369 20.816 1.92369 20.816 1.87541C20.162 2.21343 18.2544 3.08261 17.9819 3.22747C16.6738 3.75864 16.5103 3.80693 15.9108 4.09666C15.5838 4.24152 15.2568 4.43468 14.9843 4.57954C14.9298 4.53125 14.8752 4.48296 14.8207 4.43467C15.0388 4.28981 15.4203 4.04837 15.9108 3.80693C16.5103 3.5172 16.6193 3.46892 17.9274 2.88946C18.0909 2.84117 18.7449 2.50315 19.3444 2.16514C19.5079 2.06856 19.7259 1.97198 19.8895 1.87541C20.053 1.77883 20.162 1.68226 20.271 1.63397L20.2165 1.58568C19.944 1.68226 19.5624 1.8754 19.4534 1.92369C18.7449 2.26171 17.8729 2.64802 17.6003 2.74459C16.2923 3.32405 16.1288 3.37234 15.5293 3.66206C15.2023 3.80693 14.8207 4.00009 14.6027 4.19323C14.5482 4.14495 14.4937 4.09666 14.4392 4.04837C14.7117 3.85522 15.0933 3.61378 15.5293 3.42063C16.1288 3.13089 16.2378 3.08261 17.5458 2.50315C17.7638 2.40658 17.9819 2.31 18.1454 2.21343C18.1999 2.21343 18.7994 1.92369 19.3444 1.58568ZM14.8753 1.29595C16.1288 1.29595 17.3823 1.44081 18.5269 1.77883C18.3089 1.92369 17.9819 2.06856 17.5458 2.26171C16.0198 2.93775 15.8563 2.98603 15.2023 3.27576C14.7662 3.46892 14.4392 3.66206 14.1667 3.85522C14.1667 3.85522 13.8942 3.5172 13.7307 3.42063C13.5672 3.32405 13.1857 3.22747 13.0767 3.17918C12.8587 3.08261 12.8042 2.98603 12.4772 2.88946C12.2047 2.79288 11.9867 2.84117 11.8231 2.84117C11.6596 2.79288 11.4961 2.74459 11.2236 2.74459C11.0601 2.74459 10.8421 2.84117 10.6786 2.84117C10.4606 2.84117 10.2971 2.79288 10.1336 2.79288C9.97006 2.84117 9.75204 2.98603 9.53402 2.98603C9.37051 3.03432 9.15255 2.98603 9.04355 2.98603C8.93454 3.03432 8.66202 3.22747 8.49851 3.27576C8.3895 3.32405 8.06247 3.32405 8.11698 3.56549C8.11698 3.75864 8.60751 3.80693 8.60751 3.80693C8.60751 3.80693 10.7331 4.04837 12.8042 5.01413C12.5316 5.35215 12.2047 5.69017 11.9866 6.07644C11.8231 6.02818 11.6051 5.97992 11.4961 5.97992C11.2781 5.97992 11.0601 6.07645 10.8966 6.02818C10.5696 6.02818 10.5696 5.97992 10.1881 6.02818C9.91555 6.07645 9.91555 6.12476 9.69754 6.17302C9.53402 6.22134 9.37051 6.17302 9.09805 6.22134C8.98904 6.2696 8.77103 6.46276 8.60751 6.51108C8.49851 6.55934 8.28049 6.55934 8.11698 6.65592C8.00797 6.7525 8.00797 6.84908 7.73551 6.94566C7.57199 7.04224 7.46299 6.99392 7.29947 7.13882C7.19046 7.33197 7.19046 7.47682 6.91794 7.66997C6.59092 7.91139 6.59092 8.10455 6.64542 8.15287C6.75443 8.34603 7.24497 8.15287 7.24497 8.15287C7.24497 8.15287 8.98904 7.62171 11.0601 7.52513C10.5151 8.49087 10.0791 9.40834 9.80654 10.0361C9.75204 10.181 9.69754 10.3258 9.64303 10.4224C9.58853 10.4224 9.58853 10.4224 9.58853 10.4224C9.47952 10.3258 9.47952 10.181 9.53402 9.84292C9.58853 9.50492 9.91555 8.82887 10.0246 8.68403H9.91555C9.80655 8.82887 9.47952 9.36008 9.42502 9.45666C9.31607 9.64982 9.26156 9.69808 9.04355 10.1327C8.98904 10.2292 8.88003 10.4224 8.71652 10.4224C8.60751 10.4224 8.49851 10.3741 8.49851 10.2776C8.49851 10.2292 8.55301 10.1327 8.60751 10.1327C8.88003 9.74634 9.09805 9.36008 9.15255 9.16692H9.04355C9.04355 9.16692 8.28049 10.7121 6.64542 10.7121C6.10042 10.7121 5.50089 10.4707 5.50089 10.4707C5.50089 10.4707 4.73786 10.7604 3.70233 10.7604C2.88479 10.7604 2.39427 10.6156 2.17626 10.5672C3.32081 5.35215 8.3895 1.29595 14.8753 1.29595Z" fill="white" fill-opacity="0.8"/>
<path d="M52.6994 12.6919L52.5904 12.6436C51.9364 12.3539 51.7183 11.533 51.3914 10.8087L48.0667 2.98602H44.9056V3.22747L45.0691 3.27576C45.0691 3.27576 45.2327 3.32404 45.2872 3.37233C45.4506 3.4689 45.6141 3.66206 45.3961 4.14494C45.3961 4.38638 45.2872 4.57953 45.2872 4.57953L42.671 10.8087C42.3985 11.4848 42.1805 12.3539 41.5265 12.6436L41.3085 12.7402V12.9816H44.8511V12.7402L44.5786 12.6436C44.2516 12.5471 44.1971 12.2573 44.5241 11.4364L44.9056 10.3258H48.6662C48.7752 10.5673 48.8842 10.9053 49.0478 11.3882C49.2113 11.871 49.4838 12.4988 49.1023 12.6919L48.8842 12.7885V13.03H52.6994V12.6919ZM48.1213 8.68401H45.6141L46.8677 5.59358L48.1213 8.68401Z" fill="white" fill-opacity="0.8"/>
<path d="M75.7 2.98602V3.22747L75.9725 3.32404C76.4086 3.4689 76.3541 4.38638 76.3541 4.96584V11.0019C76.3541 11.4848 76.3541 12.4988 75.9725 12.6436L75.7 12.7402V12.9816H79.2967V12.7402L79.0242 12.6436C78.5881 12.4988 78.6426 11.4848 78.6426 11.0019V4.96584C78.6426 4.14494 78.7517 3.42062 79.0242 3.32404L79.2967 3.22747V2.98602H75.7Z" fill="white" fill-opacity="0.8"/>
<path d="M62.1824 2.98602V3.22747L62.455 3.32404C62.891 3.4689 62.8365 4.38638 62.8365 4.96584V11.0019C62.8365 11.4848 62.8365 12.4988 62.455 12.6436L62.1824 12.7402V12.9816H65.7797V12.7402L65.5072 12.6436C65.0712 12.4988 65.1257 11.4848 65.1257 11.0019V4.96584C65.1257 4.14494 65.2347 3.42062 65.5072 3.32404L65.7797 3.22747V2.98602H62.1824Z" fill="white" fill-opacity="0.8"/>
<path d="M41.9632 2.11679C41.1457 1.39247 39.8921 1.00616 38.5296 1.00616H33.8969V1.24761L34.1149 1.2959C34.7145 1.53733 34.66 2.84111 34.66 3.80687V10.1326V10.3741C34.66 11.0984 34.66 12.4022 34.1149 12.5953L33.8969 12.6919V12.9333H38.1481V12.6919L37.9846 12.5953C37.2215 12.1607 37.2215 11.195 37.2215 10.1809V8.05622L37.6576 8.20112C37.6576 8.20112 38.3661 8.44254 39.0201 8.44254C40.9822 8.44254 43.1077 7.23533 43.1077 4.62778C43.1077 3.66201 42.7263 2.79282 41.9632 2.11679ZM37.8211 7.52506L37.4396 7.57333H37.2215V3.08256C37.4941 3.03427 37.8211 3.03427 38.2571 3.03427C39.1291 3.03427 39.8376 3.22742 40.2191 3.61373C40.6007 3.95174 40.7642 4.38633 40.7642 5.01408C40.7642 6.51101 39.2381 7.42848 37.8211 7.52506Z" fill="white" fill-opacity="0.8"/>
<path d="M99.8993 1.00619H97.9917H92.5413V1.29592L92.8683 1.3925C93.3588 1.58565 93.3588 2.69627 93.3588 3.32402V10.5673C93.3588 11.1467 93.3588 12.3539 92.8683 12.5471L92.5413 12.6436V12.9334H96.6291V12.6436L96.302 12.5471C95.8115 12.3539 95.8115 11.195 95.8115 10.5673V8.2011H98.2097C98.2097 8.2011 99.2453 8.10452 99.4088 8.49084L99.4633 8.63573L99.7358 8.68399L99.8993 5.49698H99.5178L99.4633 5.69014C99.3543 5.93157 98.4277 6.02815 98.1552 5.97989H95.757C95.757 4.91753 95.757 3.61375 95.757 3.03429H98.7002C99.4088 3.03429 99.7903 3.17916 99.8993 3.51718L99.9532 3.71032H100.28L101.043 0.861328C101.152 0.957905 100.171 1.00619 99.8993 1.00619Z" fill="white" fill-opacity="0.8"/>
<path d="M60.9834 10.2775L60.9289 10.3258C60.8199 10.4224 60.7109 10.4707 60.7109 10.4707C60.0568 10.857 58.9667 11.2916 57.8769 11.2916C57.0049 11.2916 56.2964 11.0501 55.6968 10.5672C54.9883 9.93951 54.6068 8.92545 54.6068 7.76656C54.6068 5.93161 55.8058 4.67609 57.5499 4.67609C58.3675 4.67609 59.1847 4.91753 60.0023 5.40041L60.2203 5.54528L60.6563 5.78672V5.35213V3.37232V3.17916L60.3293 3.13087C59.2392 2.88943 58.3675 2.74457 57.6044 2.74457C56.0784 2.74457 54.7703 3.22745 53.7893 4.09664C52.7537 5.01411 52.1542 6.41445 52.1542 7.95966C52.1542 9.55319 52.6992 10.857 53.7348 11.7745C54.7703 12.6919 56.2964 13.1748 58.0404 13.1748C58.9124 13.1748 59.7298 13.0299 60.3838 12.6919H60.4383L60.5473 12.6436L60.6018 12.547L61.3649 10.2292H60.9834V10.2775Z" fill="white" fill-opacity="0.8"/>
<path d="M88.8344 10.2775L88.5073 10.4707C87.8533 10.857 86.7632 11.2916 85.6731 11.2916C84.8011 11.2916 84.0925 11.0501 83.493 10.5672C82.7844 9.93951 82.4029 8.92545 82.4029 7.76656C82.4029 5.93161 83.602 4.67609 85.3461 4.67609C86.1637 4.67609 86.9812 4.91753 87.7988 5.40041L88.4528 5.78672V3.37232V3.17916L88.1803 3.13087C87.0902 2.88943 86.2182 2.74457 85.4551 2.74457C83.929 2.74457 82.6209 3.22745 81.6398 4.09664C80.6042 5.01411 80.0047 6.41445 80.0047 7.95966C80.0047 9.55319 80.5497 10.857 81.5853 11.7745C82.6209 12.6919 84.147 13.1748 85.8911 13.1748C86.7632 13.1748 87.5808 13.0299 88.2348 12.6919L88.3983 12.6436L89.2159 10.2292H88.8344V10.2775Z" fill="white" fill-opacity="0.8"/>
<path d="M73.7917 2.98592H70.7946H67.1973V3.22736L67.4698 3.32393C67.9059 3.4688 67.8514 4.38627 67.8514 4.96573V11.0017C67.8514 11.4846 67.8514 12.4987 67.4698 12.6436L67.1973 12.7401V12.9816H70.7946V12.7401L70.5221 12.6436C70.086 12.4987 70.1405 11.4846 70.1405 11.0017V9.02193H72.1027C72.1027 9.02193 72.9742 8.97367 73.0832 9.26335L73.1377 9.40825L73.3557 9.45651L73.5192 6.80066H73.2467L73.1922 6.94556C73.1377 7.13872 72.3207 7.2353 72.1027 7.18698H70.086C70.086 6.31782 70.086 5.20717 70.086 4.72429H72.7561C73.3557 4.72429 73.6827 4.86916 73.7917 5.11059L73.8462 5.25546H74.1187L74.7728 2.88934C74.8818 2.88934 74.0097 2.98592 73.7917 2.98592Z" fill="white" fill-opacity="0.8"/>
<path d="M120.009 2.98603V3.22747L120.227 3.32405C120.718 3.61378 120.772 4.04837 120.772 4.86927V9.45663C119.246 7.5251 115.868 2.93774 115.868 2.93774H113.251V3.17919L113.469 3.27576C113.96 3.56549 114.015 4.04837 114.015 4.86927V10.857C114.015 11.6779 114.015 12.3056 113.469 12.5954L113.306 12.692V12.9334H116.631V12.692L116.413 12.5954C115.922 12.4988 115.922 11.6779 115.922 10.857V6.51105L119.192 10.6638C119.791 11.4365 120.772 12.5471 121.808 12.8368C122.626 13.0783 122.789 13.03 122.789 13.03V4.91756C122.789 4.09666 122.789 3.61378 123.334 3.32405L123.552 3.22747V2.98603H120.009Z" fill="white" fill-opacity="0.8"/>
<path d="M133.417 4.43468C132.327 3.46891 130.692 2.93774 128.676 2.93774H124.588V3.17919L124.806 3.22747L124.915 3.27576C125.405 3.42062 125.296 4.43468 125.296 4.96585V11.0018C125.296 11.7262 125.296 12.354 124.697 12.692L124.533 12.7885V12.9817H128.567C132.272 12.9817 134.889 10.9053 134.889 7.91142C134.889 6.51105 134.398 5.30386 133.417 4.43468ZM131.509 10.4707C130.746 11.0984 129.711 11.4847 128.403 11.4847C128.131 11.4847 127.967 11.4365 127.64 11.3882V4.62783C128.076 4.53125 128.294 4.48296 128.676 4.48296C129.929 4.48296 130.855 4.77269 131.509 5.35215C132.163 5.93163 132.49 6.89737 132.49 8.05626C132.49 9.02205 132.109 9.89121 131.509 10.4707Z" fill="white" fill-opacity="0.8"/>
<path d="M111.234 11.1467V4.86926C111.234 4.14494 111.234 3.4689 111.779 3.32404L111.997 3.27576L111.834 2.98602H108.128V3.22747L108.346 3.27576C108.891 3.4689 108.836 4.24151 108.836 4.77268V9.55322C108.836 10.0361 108.836 10.2775 108.564 10.6155C108.128 11.1467 107.31 11.4847 106.438 11.4847C105.73 11.4847 105.239 11.3399 104.858 11.0019C104.367 10.6155 104.149 9.89122 104.149 8.97375V4.72439C104.149 4.14494 104.149 3.37233 104.64 3.22747L104.858 3.17918V2.98602H101.043V3.22747L101.261 3.27576C101.751 3.42062 101.806 4.33809 101.751 5.06242V9.1669C101.751 10.181 101.751 11.195 102.678 12.1125C103.441 12.8368 104.585 13.2231 105.893 13.2231C106.819 13.2231 107.964 12.7885 108.782 12.2091V12.9816H111.888V12.7402L111.67 12.6919C111.234 12.4988 111.18 11.871 111.234 11.1467Z" fill="white" fill-opacity="0.8"/>
<path d="M143.064 9.93951C143.064 10.7121 142.683 11.4847 141.974 12.0642C141.156 12.7885 140.012 13.1748 138.758 13.1748C137.777 13.1748 136.851 13.0299 135.979 12.7402H135.924L135.815 12.6919V12.5954V12.547L135.379 10.7604L135.325 10.4707L135.27 10.2292H135.543L135.924 10.6155C136.742 11.2916 137.886 11.5813 138.922 11.5813C139.63 11.5813 140.666 11.1467 140.666 10.4223C140.666 9.60145 139.794 9.21519 138.649 8.73229C137.287 8.15282 135.652 7.4285 135.652 5.59356C135.652 3.51717 137.832 2.79285 139.685 2.79285C140.502 2.79285 141.265 2.88943 141.974 3.13086H142.029L142.192 3.17915V3.32402V3.37231V4.6278V5.06239V5.35212L141.811 5.11068L141.429 4.91752C141.102 4.72438 140.284 4.43464 139.576 4.43464C139.303 4.43464 138.704 4.48293 138.322 4.82095C138.159 4.96581 138.05 5.15897 138.05 5.44869C138.05 6.17303 139.031 6.6076 140.066 7.04218C141.374 7.62166 143.064 8.34598 143.064 9.93951Z" fill="white" fill-opacity="0.8"/>
</g>
<defs>
<clipPath id="clip0_430_817">
<rect width="143" height="13" fill="white" transform="translate(0.357178 0.445618)"/>
</clipPath>
</defs>
</svg>
