<svg width="121" height="24" viewBox="0 0 121 24" fill="none" xmlns="http://www.w3.org/2000/svg">
<g clip-path="url(#clip0_430_842)">
<path fill-rule="evenodd" clip-rule="evenodd" d="M10.7091 16.242L14.0499 19.6555L11.263 22.6239C10.3592 23.5864 8.89371 23.5864 7.98998 22.6239L1.03497 15.2164C0.131246 14.2535 0.131246 12.693 1.03497 11.7304C1.93899 10.7679 3.40422 10.7679 4.30795 11.7304L9.62647 17.395L10.7091 16.242ZM11.5775 15.317L14.5365 12.1655L17.8092 15.6514L15.0845 18.5535L11.5775 15.317Z" fill="#CECCD3"/>
<path fill-rule="evenodd" clip-rule="evenodd" d="M24.9657 18.4879L21.4785 15.2301L29.6733 6.50223C30.577 5.5397 32.0422 5.5397 32.9462 6.50223C33.85 7.46476 33.85 9.02533 32.9462 9.98817L24.9657 18.4879ZM23.8812 19.643L21.0826 22.6237C20.1786 23.5862 18.7134 23.5862 17.8097 22.6237L5.94489 9.98693C5.04116 9.0241 5.04116 7.46353 5.94489 6.501C6.84861 5.53816 8.31385 5.53816 9.21786 6.501L19.4461 17.3948L20.5965 16.1695L23.8812 19.643Z" fill="#CECCD3"/>
<path fill-rule="evenodd" clip-rule="evenodd" d="M19.9373 14.4309L23.1948 10.9287L29.2658 17.3948L34.5832 11.7315C35.4872 10.7689 36.9524 10.7689 37.8562 11.7315C38.7599 12.6943 38.7599 14.2549 37.8562 15.2174L30.9023 22.6237C29.9986 23.5862 28.5333 23.5862 27.6296 22.6237L19.9373 14.4309ZM18.5878 12.9936L10.8548 4.75744C9.95107 3.79491 9.95107 2.23434 10.8548 1.27181C11.7588 0.308973 13.224 0.308973 14.1278 1.27181L21.8688 9.5165L18.5878 12.9936Z" fill="#CECCD3"/>
<path fill-rule="evenodd" clip-rule="evenodd" d="M28.0365 1.27304C27.1327 0.310515 25.6675 0.310515 24.7635 1.27304L14.5364 12.1656L17.8094 15.6515L28.0365 4.75898C28.9402 3.79614 28.9402 2.23557 28.0365 1.27304Z" fill="#CECCD3"/>
<path fill-rule="evenodd" clip-rule="evenodd" d="M50.5148 2.97538H47.6688V20.7808H58.0965V18.0918H50.5148V2.97538ZM64.2559 8.3291C65.9862 8.3291 67.1474 9.08008 67.7849 10.0006L67.9215 8.57135H70.3804V20.7808H67.9215L67.7849 19.3515C67.1474 20.272 65.9862 21.023 64.2559 21.023C61.1367 21.023 59.0193 18.334 59.0193 14.6761C59.0193 10.9939 61.1367 8.3291 64.2559 8.3291ZM64.8478 10.897C63.0719 10.897 61.7969 12.3747 61.7969 14.6761C61.7969 16.9774 63.0719 18.4552 64.8478 18.4552C66.2139 18.4552 67.0336 17.68 67.6483 16.6383V12.7138C67.0336 11.6722 66.2139 10.897 64.8478 10.897ZM77.2684 4.47733H74.5362V8.57135H72.3733V11.0423H74.5362V16.4687C74.5362 19.4242 76.1983 21.023 78.8166 21.023C79.955 21.023 80.7974 20.6838 81.3666 20.2962L80.638 18.0191C80.2965 18.2371 79.7956 18.4067 79.067 18.4067C77.997 18.4067 77.2684 17.68 77.2684 16.4445V11.0423H80.7291V8.57135H77.2684V4.47733ZM86.6836 4.47733H83.9514V8.57135H81.7885V11.0423H83.9514V16.4687C83.9514 19.4242 85.6135 21.023 88.2318 21.023C89.3702 21.023 90.2126 20.6838 90.7818 20.2962L90.0532 18.0191C89.7117 18.2371 89.2108 18.4067 88.4822 18.4067C87.4121 18.4067 86.6836 17.68 86.6836 16.4445V11.0423H90.1443V8.57135H86.6836V4.47733ZM95.3474 8.57135H92.6153V20.7808H95.3474V8.57135ZM93.9813 2.87848C93.0251 2.87848 92.2965 3.62945 92.2965 4.67113C92.2965 5.7128 93.0251 6.46378 93.9813 6.46378C94.9603 6.46378 95.6889 5.7128 95.6889 4.67113C95.6889 3.62945 94.9603 2.87848 93.9813 2.87848ZM103.601 8.3291C100.072 8.3291 97.7273 10.9939 97.7273 14.6761C97.7273 18.334 100.095 21.023 103.624 21.023C105.696 21.023 107.267 20.0298 108.292 18.334L106.334 16.711C105.787 17.68 104.899 18.4794 103.647 18.4794C101.621 18.4794 100.505 16.8079 100.505 14.6761C100.505 12.52 101.575 10.8727 103.624 10.8727C104.899 10.8727 105.742 11.6479 106.265 12.6169L108.246 11.0181C107.222 9.32233 105.696 8.3291 103.601 8.3291ZM114.975 8.3291C118.504 8.3291 120.234 11.1392 120.234 14.5549V15.5724H112.129C112.197 17.5104 113.29 18.5763 115.202 18.5763C116.546 18.5763 117.525 17.9464 118.048 17.1712L119.938 18.8185C118.8 20.272 117.297 21.023 115.18 21.023C111.628 21.023 109.351 18.3583 109.351 14.7003C109.351 11.0181 111.673 8.3291 114.975 8.3291ZM114.929 10.6547C113.313 10.6547 112.22 11.7933 112.129 13.489H117.547C117.479 11.8175 116.568 10.6547 114.929 10.6547Z" fill="white" fill-opacity="0.8"/>
</g>
<defs>
<clipPath id="clip0_430_842">
<rect width="120" height="22.8" fill="white" transform="translate(0.357178 0.545593)"/>
</clipPath>
</defs>
</svg>
