<svg width="55" height="21" viewBox="0 0 55 21" fill="none" xmlns="http://www.w3.org/2000/svg">
<path d="M5.83233 6.05094H0.357178L0.357178 0.945618H17.3734V6.05094H11.8971V20.9456H5.83233V6.05094ZM18.315 0.945618H34.8604V6.05094H24.3803V8.5136H34.8604V13.3177H24.3803V15.8403H34.8604V20.9456H18.315V0.945618ZM35.8607 0.945618H45.8114C52.3475 0.945618 54.6429 5.87078 54.6429 10.916C54.6429 17.042 51.4628 20.9456 44.6335 20.9456H35.8607V0.945618ZM41.926 15.8403H44.28C48.0482 15.8403 48.5793 12.7178 48.5793 10.856C48.5793 9.59423 48.1671 6.11105 43.8092 6.11105H41.8656L41.926 15.8403Z" fill="white" fill-opacity="0.8"/>
</svg>
