<svg width="88" height="18" viewBox="0 0 88 18" fill="none" xmlns="http://www.w3.org/2000/svg">
<g clip-path="url(#clip0_430_796)">
<path d="M58.2132 15.1287C59.3664 15.154 60.4823 14.7114 61.3161 13.8981L62.8558 15.5897C61.8385 16.656 60.4324 17.4456 58.2407 17.4456C54.4857 17.4456 52.0623 14.9043 52.0623 11.465C52.0472 10.6941 52.1812 9.92785 52.4566 9.20992C52.732 8.49199 53.1434 7.83653 53.6673 7.28104C54.1911 6.72555 54.8172 6.28093 55.5096 5.97263C56.202 5.66432 56.9472 5.49839 57.7026 5.48431H57.9107C61.6382 5.48431 63.7513 8.37844 63.5667 12.3949H54.745C55.0592 14.0625 56.2061 15.1247 58.2132 15.1247V15.1287ZM60.8998 10.4669C60.6641 8.91157 59.7529 7.76514 57.9265 7.76514C57.1592 7.7194 56.4037 7.97308 55.8129 8.47476C55.2221 8.97644 54.8404 9.68859 54.745 10.4669H60.8998Z" fill="white" fill-opacity="0.8"/>
<path d="M0.357178 15.0044L7.14043 7.97351H0.518216V5.76483H10.2826V8.0176L3.49939 15.0485H10.373V17.2532H0.357178V15.0044Z" fill="white" fill-opacity="0.8"/>
<path d="M17.989 15.1287C19.1422 15.154 20.2581 14.7114 21.0919 13.8981L22.6316 15.5897C21.6143 16.656 20.2082 17.4456 18.0165 17.4456C14.2616 17.4456 11.8381 14.9043 11.8381 11.465C11.823 10.6948 11.9567 9.92915 12.2316 9.21174C12.5065 8.49433 12.9173 7.83922 13.4403 7.28383C13.9634 6.72844 14.5885 6.28366 15.28 5.9749C15.9715 5.66613 16.7159 5.49943 17.4705 5.48431H17.6787C21.4062 5.48431 23.5193 8.37844 23.3347 12.3949H14.5208C14.835 14.0625 15.9819 15.1247 17.989 15.1247V15.1287ZM20.6756 10.4669C20.4399 8.91157 19.5287 7.76514 17.7023 7.76514C16.935 7.7194 16.1795 7.97308 15.5887 8.47476C14.9979 8.97644 14.6162 9.68859 14.5208 10.4669H20.6756Z" fill="white" fill-opacity="0.8"/>
<path d="M37.9734 11.477C37.9734 7.80119 40.6639 5.50433 43.6254 5.50433C44.336 5.49496 45.04 5.64439 45.688 5.94215C46.336 6.23992 46.9123 6.67879 47.3765 7.22798V0.445618H49.7724V17.2211H47.3765V15.6177C46.921 16.19 46.3453 16.6503 45.6919 16.9646C45.0385 17.2789 44.3242 17.4392 43.6019 17.4336C42.8565 17.4278 42.1196 17.2723 41.4332 16.9759C40.7467 16.6794 40.1242 16.2479 39.6012 15.7059C39.0782 15.164 38.6649 14.5222 38.3849 13.8172C38.1049 13.1122 37.9638 12.3579 37.9695 11.5972C37.9695 11.5491 37.9695 11.505 37.9695 11.4609L37.9734 11.477ZM47.51 11.4369C47.495 10.464 47.1038 9.53656 46.4217 8.8567C45.7396 8.17684 44.8218 7.79965 43.8684 7.80732C42.915 7.81499 42.0032 8.20689 41.3317 8.89764C40.6602 9.58838 40.2834 10.522 40.2834 11.495C40.2834 12.468 40.6602 13.4017 41.3317 14.0924C42.0032 14.7831 42.915 15.175 43.8684 15.1827C44.8218 15.1904 45.7396 14.8132 46.4217 14.1333C47.1038 13.4535 47.495 12.5261 47.51 11.5531V11.4369Z" fill="white" fill-opacity="0.8"/>
<path d="M65.1183 14.784L67.2864 13.6335C67.574 14.155 67.9955 14.5866 68.5056 14.8818C69.0157 15.1771 69.595 15.3248 70.1811 15.3091C71.5362 15.3091 72.2393 14.5996 72.2393 13.7939C72.2393 12.8759 70.9274 12.6675 69.4899 12.3709C67.5692 11.97 65.5621 11.3126 65.5621 8.9476C65.5621 7.13176 67.255 5.45621 69.9258 5.47625C72.0272 5.47625 73.5865 6.32605 74.4703 7.70497L72.4867 8.83136C72.2085 8.41104 71.8299 8.07007 71.3866 7.84071C70.9433 7.61135 70.45 7.50117 69.9533 7.52058C68.665 7.52058 68.0091 8.16595 68.0091 8.8995C68.0091 9.72525 69.0499 9.95774 70.676 10.3225C72.5299 10.7234 74.6313 11.3567 74.6313 13.7458C74.6313 15.3492 73.2762 17.4696 70.0633 17.4456C67.7066 17.4456 66.0609 16.4796 65.1143 14.78" fill="white" fill-opacity="0.8"/>
<path d="M81.1433 12.1183L79.2423 14.2308V17.2211H76.8464V0.445618H79.2423V11.4289L84.3288 5.72881H87.2471L82.8362 10.6472L87.3571 17.2211H84.6469L81.1433 12.1183Z" fill="white" fill-opacity="0.8"/>
<path d="M30.7306 5.50029C27.8829 5.50029 25.4988 7.38427 25.4988 10.5109V17.2211H27.9418V10.8075C27.9418 8.92353 29.0023 7.79715 30.813 7.79715C32.6237 7.79715 33.5271 8.92353 33.5271 10.8075V17.2211H35.9584V10.5069C35.9584 7.38027 33.5743 5.49628 30.7266 5.49628" fill="white" fill-opacity="0.8"/>
</g>
<defs>
<clipPath id="clip0_430_796">
<rect width="87" height="17" fill="white" transform="translate(0.357178 0.445618)"/>
</clipPath>
</defs>
</svg>
