<svg width="68" height="22" viewBox="0 0 68 22" fill="none" xmlns="http://www.w3.org/2000/svg">
<g clip-path="url(#clip0_430_806)">
<path d="M16.9861 21.4456L54.2397 18.0448H13.7571L16.9861 21.4456Z" fill="white" fill-opacity="0.8"/>
<path d="M62.877 4.01648C62.1128 4.03528 61.3699 4.28623 60.7379 4.73915V4.27154H58.2355V15.8343H60.7379V9.07518C60.7203 8.77906 60.7604 8.48227 60.8559 8.20312C60.9514 7.92398 61.1002 7.66839 61.293 7.45213C61.4859 7.23586 61.7188 7.06351 61.9773 6.94569C62.2359 6.82787 62.5146 6.76708 62.7963 6.76708C63.078 6.76708 63.3568 6.82787 63.6153 6.94569C63.8739 7.06351 64.1067 7.23586 64.2996 7.45213C64.4925 7.66839 64.6412 7.92398 64.7367 8.20312C64.8322 8.48227 64.8724 8.77906 64.8548 9.07518V15.8768H67.3572V9.07518C67.3572 6.26952 65.5409 4.01648 62.877 4.01648Z" fill="white" fill-opacity="0.8"/>
<path d="M52.4639 3.974C49.5579 3.974 47.4995 6.65214 47.4995 10.0529C47.4995 13.6238 50.0826 16.1319 52.7061 16.1319C54.038 16.1319 55.6928 15.6643 57.1055 13.5388L54.8856 12.1785C53.1904 14.8141 50.3248 13.4963 50.0019 10.8181H57.1862C57.832 6.73716 55.2892 3.974 52.4639 3.974ZM50.1633 8.56509C50.688 5.88695 54.1591 5.71691 54.6434 8.56509H50.1633Z" fill="white" fill-opacity="0.8"/>
<path d="M41.7843 12.4384C41.7621 12.9683 41.8414 13.4974 42.0176 13.9943C42.1937 14.4912 42.4631 14.9457 42.8097 15.3305C43.1562 15.7153 43.5729 16.0227 44.0347 16.2343C44.4965 16.4458 44.994 16.5572 45.4976 16.5619C46.3484 16.5305 47.1793 16.2825 47.9193 15.8392L46.3048 13.5436C46.0569 13.7299 45.7616 13.8336 45.4572 13.8412C45.2909 13.8363 45.1273 13.7953 44.9767 13.7208C44.8261 13.6463 44.6917 13.5399 44.5819 13.4083C44.4721 13.2766 44.3892 13.1226 44.3384 12.9557C44.2876 12.7888 44.27 12.6127 44.2867 12.4384V7.4647H46.4259V4.70154H44.2867V1.81085H41.7843V4.70154H40.4524V7.4647H41.7843V12.4384Z" fill="white" fill-opacity="0.8"/>
<path d="M35.3507 16.1319C36.1149 16.1131 36.8578 15.8621 37.4898 15.4092V15.8343H39.9922V4.27155H37.4898V11.0732C37.5074 11.3693 37.4673 11.6661 37.3718 11.9452C37.2763 12.2244 37.1276 12.48 36.9347 12.6962C36.7418 12.9125 36.5089 13.0848 36.2504 13.2027C35.9918 13.3205 35.7131 13.3813 35.4314 13.3813C35.1497 13.3813 34.871 13.3205 34.6124 13.2027C34.3539 13.0848 34.121 12.9125 33.9281 12.6962C33.7352 12.48 33.5865 12.2244 33.491 11.9452C33.3955 11.6661 33.3553 11.3693 33.373 11.0732V4.27155H30.8705V11.0732C30.8705 13.8788 32.6868 16.1319 35.3507 16.1319Z" fill="white" fill-opacity="0.8"/>
<path d="M23.9686 11.1157L27.6818 15.8768H31.1529L26.1884 9.71282L30.4667 4.27153H26.9957L23.9686 8.30999V0.445618H21.4258V15.8768H23.9686V11.1157Z" fill="white" fill-opacity="0.8"/>
<path d="M17.5108 15.3242V15.8343H20.0132V4.27157H17.5108V4.78169C16.8289 4.26338 16.0108 3.98113 15.1699 3.974C12.3446 3.974 10.165 6.69465 10.165 10.0529C10.165 13.4112 12.3042 16.1319 15.1699 16.1319C16.0118 16.1314 16.8318 15.8485 17.5108 15.3242ZM12.7078 10.0955C12.7078 8.26752 13.7168 6.82218 15.1295 6.82218C16.5421 6.82218 17.5108 8.26752 17.5108 10.0955C17.5108 11.9234 16.5421 13.3687 15.1295 13.3687C13.7168 13.3687 12.7078 11.9234 12.7078 10.0955Z" fill="white" fill-opacity="0.8"/>
<path d="M9.35778 6.35454C9.35671 5.03579 8.85884 3.77136 7.97347 2.83886C7.0881 1.90636 5.88759 1.38199 4.63549 1.38086H0.357178V15.8343H2.98067V11.3707H4.79694L7.98549 15.8343H11.2548L7.38007 10.4355C7.99841 9.97436 8.50136 9.36216 8.84581 8.6514C9.19026 7.94063 9.36593 7.1525 9.35778 6.35454ZM4.67585 8.65009H2.98067V4.14402H4.67585C5.24319 4.14402 5.78729 4.38139 6.18846 4.80392C6.58963 5.22644 6.81501 5.79951 6.81501 6.39705C6.81501 6.9946 6.58963 7.56766 6.18846 7.99019C5.78729 8.41272 5.24319 8.65009 4.67585 8.65009Z" fill="white" fill-opacity="0.8"/>
</g>
<defs>
<clipPath id="clip0_430_806">
<rect width="67" height="21" fill="white" transform="translate(0.357178 0.445618)"/>
</clipPath>
</defs>
</svg>
