<svg width="63" height="21" viewBox="0 0 63 21" fill="none" xmlns="http://www.w3.org/2000/svg">
<g clip-path="url(#clip0_430_792)">
<path d="M26.9676 0.957732L16.5867 8.74697C16.0988 6.8311 14.9712 5.12813 13.3817 3.90646C11.7922 2.68479 9.83113 2.0139 7.8076 1.99952H0.357178V19.9038H7.8076C9.84191 19.9306 11.8239 19.275 13.422 18.0468C15.0201 16.8185 16.1373 15.0921 16.5867 13.1564L26.9676 20.9456L37.3486 13.1564V19.9038H49.0582V16.2697H41.3345V1.9874H37.0754V8.73483L27.2284 16.524L25.105 14.707L29.8981 11.0728L34.952 7.18426L32.0215 4.84628L22.1746 12.369L20.0511 10.5519L29.8981 3.28359L26.9676 0.945618V0.957732ZM4.34316 5.62157H7.53445C8.19482 5.62282 8.84716 5.76332 9.44673 6.03344C10.0557 6.3067 10.6042 6.69353 11.061 7.17215C11.5418 7.67591 11.921 8.26362 12.1785 8.9044C12.7081 10.2663 12.7081 11.7703 12.1785 13.1322C11.9376 13.771 11.58 14.3621 11.1231 14.8765C10.6789 15.3823 10.1339 15.7944 9.5212 16.088C8.89014 16.3852 8.19799 16.5385 7.49718 16.5362H4.34316V5.63368V5.62157ZM62.3448 16.2697V19.9038H50.6476V1.9874H54.9067V16.2697H62.3572H62.3448Z" fill="white" fill-opacity="0.8"/>
</g>
<defs>
<clipPath id="clip0_430_792">
<rect width="62" height="20" fill="white" transform="translate(0.357178 0.945618)"/>
</clipPath>
</defs>
</svg>
